<?xml version="1.0" encoding="UTF-8"?><svg xmlns="http://www.w3.org/2000/svg" viewBox="0 0 377.08 372.52">
    <defs>
        <style>.cls-1,.cls-2{fill:#fff;}.cls-3{fill:#ffedb3;}.cls-4{fill:#e3173e;}.cls-5{stroke:#a0907a;stroke-miterlimit:10;}.cls-5,.cls-6{fill:#a0907a;}.cls-7{fill:#b2a490;}.cls-2{stroke:#fff;stroke-miterlimit:2.61;}.cls-8{fill:#231f20;}</style>
    </defs>
    <g id="White">
        <circle class="cls-1" cx="187.02" cy="185.2" r="180"/>
        <circle class="cls-2" cx="320.98" cy="335.56" r="8.38"/>
    </g>
    <g id="Pantone_1205_C">
        <path class="cls-3" d="m57.95,185.2c0,71.28,57.79,129.07,129.07,129.07s129.07-57.79,129.07-129.07S258.3,56.13,187.02,56.13,57.95,113.91,57.95,185.2h0Z"/>
    </g>
    <g id="Pantone_186_C">
        <path class="cls-4" d="m209.71,339.65c.53,3.95.02,6.98-1.54,7.19h-.02c-1.55.21-2.88-2.63-3.39-6.43-.51-3.77-.02-6.95,1.58-7.16,1.6-.21,2.88,2.78,3.37,6.41ZM254.05,41.56c.76-1.68.57-2.83-.41-3.27-.52-.23-.84-.31-1.03-.3l-2.3,5.09.84.38c1.07.48,2.17-.28,2.91-1.9ZM51.06,246.1c-.65-1.48-3.84-1.06-7.32.47-3.51,1.55-5.87,3.61-5.24,5.04h0c.64,1.46,3.68,1.11,7.33-.5,3.34-1.47,5.87-3.54,5.21-5.02Zm228.37-176.04h.01c1.24,1,3.78-.72,6.27-3.84,2.28-2.86,3.55-5.86,2.29-6.87-1.26-1.01-3.9.83-6.27,3.81-2.39,3-3.52,5.92-2.3,6.9Zm-22.9,246.83c-.5.27-.75.48-.86.64l2.66,4.92.81-.44c1.03-.56,1.09-1.9.24-3.46-.88-1.62-1.91-2.16-2.85-1.65ZM97.78,55.67c-.83-.9-1.85-2.06-2.65-2.95l-.04.03c.57,1.07,1.31,2.44,1.85,3.5l1.93,3.92,1.89-1.3-2.98-3.19Zm134.05,271.83c-.45.15-.74.3-.87.44l1.85,5.72c.22.02.46-.02.78-.13,1.18-.38,1.53-1.8.9-3.75-.58-1.78-1.54-2.65-2.66-2.28ZM169.48,30.71c1.16-.13,1.73-1.35,1.53-3.12-.2-1.83-.95-2.72-2.02-2.6-.57.06-.88.16-1.04.27l.61,5.56.92-.1Zm25.45,303.65c-.48.03-.79.11-.96.21l.34,6c.2.08.45.09.79.08,1.24-.07,1.94-1.35,1.82-3.4-.11-1.87-.82-2.95-2-2.88Zm-98.14-30.08c-.4-.31-.74-.45-.96-.49l-8.03,10.63c.1.19.37.4.59.56,1.69,1.31,4.18.32,7.11-3.56,2.64-3.5,2.89-5.92,1.27-7.14Zm-62.53-91.28c4.33-.69,6.19-2.26,5.87-4.26-.08-.5-.22-.84-.35-1.02l-13.16,2.09c-.06.21,0,.54.04.82.31,2.11,2.79,3.13,7.6,2.37Zm50.91,86.82l-3.34,2.81,1.71,1.52,2.39-3.66c.68-1.02,1.56-2.29,2.23-3.27l-.03-.03c-.91.81-2.06,1.85-2.95,2.63Zm72.58,32.03c-.5-.09-.86-.07-1.08-.02l-2.49,13.09c.18.13.51.19.78.24,2.09.43,3.89-1.56,4.8-6.34.82-4.3-.03-6.59-2.02-6.97Zm-89.21-49.5l-3.74,2.25,1.45,1.77,2.93-3.24c.83-.9,1.9-2.02,2.72-2.88l-.03-.04c-1.02.66-2.32,1.5-3.33,2.13Zm-30.02-60.97l-4.35.4.54,2.22,4.05-1.64c1.14-.45,2.59-.99,3.7-1.41v-.05c-1.22.15-2.76.35-3.94.47Zm297.25-13.78c-1.82-.28-2.87.21-3.04,1.28-.09.56-.07.89-.01,1.07l5.53.84.14-.91c.18-1.15-.85-2.01-2.62-2.28ZM64.27,80.48l-.03.04c.82.89,1.88,2.03,2.67,2.92l2.86,3.3,1.5-1.74-3.69-2.33c-1.03-.66-2.31-1.53-3.31-2.18Zm-32.64,107.63c3.66.06,6.81-.77,6.84-2.38.03-1.61-3.04-2.57-6.85-2.63-3.84-.06-6.84.83-6.87,2.39v.02c-.03,1.58,2.89,2.53,6.88,2.6Zm270.06,95.56c-1.4-1.2-2.55-1.34-3.25-.53-.37.43-.54.71-.58.9l4.24,3.64.6-.7c.76-.88.34-2.16-1.01-3.32ZM58.78,98.07c-3.65-2.43-6.08-2.53-7.21-.83-.28.42-.4.77-.44.99l11.09,7.38c.19-.12.37-.4.53-.63,1.21-1.77.08-4.21-3.97-6.9Zm270.51,26.03c-3.54,1.48-5.94,3.49-5.34,4.94h0c.61,1.48,3.66,1.19,7.34-.34,3.37-1.41,5.94-3.42,5.31-4.92-.62-1.49-3.82-1.15-7.33.32Zm-9.64-23.88c.92-.8,2.11-1.8,3.01-2.57l-.02-.04c-1.09.54-2.47,1.24-3.54,1.76l-3.97,1.83,1.25,1.92,3.27-2.9Zm-7.94-7.1c3.47-2.67,4.35-4.95,3.11-6.56-.31-.4-.6-.63-.79-.73l-10.56,8.13c.05.21.26.48.43.7,1.28,1.72,3.96,1.43,7.81-1.54Zm46.24,92.06c0,94.41-76.53,170.94-170.94,170.94S16.08,279.61,16.08,185.2,92.61,14.25,187.02,14.25s170.94,76.53,170.94,170.94Zm-23.49-5.96c-.03-.84.31-1.52.69-1.99l-3.64-.37c-.41.43-.86,1.37-.82,2.58.11,3.13,4.02,5.52,10.97,5.29,5.83-.2,10.17-2.18,10.05-5.76-.04-1.24-.56-2.21-.96-2.61l-3.61.46c.41.46.71,1.22.73,1.94.07,2.07-2.46,3.39-6.53,3.52-4.56.15-6.81-1.22-6.87-3.06Zm12.1-13.24l.43,4.23-4.81.49-.38-3.79-3.73.38.38,3.79-4.21.43-.41-4.02-3.76.38.64,6.34,20.26-2.05-.66-6.56-3.76.38Zm-10.68-10.08l3.25-.68-.68-3.25-3.25.68.68,3.25Zm7.16-24.78l-19.38,6.25.66,2.05,5.84-1.88c3.16-1.02,5.88-1.93,8.45-2.84l.02.06c-2.12,1.2-4.38,2.66-6.29,3.92l-6.79,4.52.76,2.35,19.38-6.25-.66-2.05-5.64,1.82c-2.93.95-5.53,1.83-8.05,2.79v-.03c2.03-1.16,4.26-2.51,6.11-3.76l6.44-4.34-.84-2.61Zm-14.83-9.26c-5.35,2.23-8.86,5.66-7.69,8.49h0c1.17,2.82,5.66,3.16,11.85.58,5.19-2.16,8.84-5.57,7.61-8.51-1.17-2.82-6.15-2.91-11.79-.57Zm6.66-9.85l-18.27,9,1.03,2.1,18.27-9-1.03-2.1Zm-5.57-10.27l-3.37,1.89,1.37,2.45-14.38,8.07,1.15,2.04,14.38-8.07,1.39,2.47,3.37-1.89-3.9-6.96Zm-4.57-7.2l-18.8,8.45,1.33,2.04,4.78-2.24,1.63,2.5-3.94,3.52,1.38,2.12,15.3-13.82-1.67-2.57Zm-9.56-12.56l-15.82,12.18c.23.54.64,1.33,1.39,2.3,1.24,1.61,2.94,2.43,5.02,2.21,1.92-.23,4.49-1.3,7.58-3.68,2.87-2.21,4.47-4.3,5.06-6.11.57-1.68.28-3.1-.93-4.67-.71-.93-1.52-1.73-2.29-2.23Zm-8.81-10.43l-15.06,13.71,1.45,1.59,4.53-4.13c2.46-2.24,4.56-4.19,6.52-6.08l.04.05c-1.43,1.97-2.89,4.23-4.1,6.17l-4.31,6.93,1.66,1.82,15.06-13.71-1.45-1.59-4.38,3.99c-2.28,2.07-4.28,3.96-6.18,5.87l-.02-.02c1.38-1.9,2.85-4.05,4.02-5.95l4.07-6.62-1.85-2.03Zm-9.23-8.9l-7.78,8.27c-4.43,4.71-5.28,7.84-3.38,9.64,1.98,1.86,5.2.79,9.51-3.79l7.82-8.32-1.71-1.6-8.01,8.52c-2.48,2.64-4.14,3.41-5.03,2.56-.86-.81-.15-2.59,2.27-5.16l8.01-8.52-1.71-1.61Zm-17.44-.96c-3.62,4.53-5.04,9.23-2.65,11.15h.01c2.37,1.9,6.48.04,10.66-5.2,3.51-4.39,5.06-9.14,2.57-11.13-2.38-1.9-6.8.41-10.6,5.18Zm-1.91-13.89l-11.5,16.8,1.93,1.32,4.63-6.75,3.08,2.11,2.12-3.09-3.08-2.11,2.63-3.84,3.29,2.25,2.13-3.12-5.23-3.58Zm-18.3,6.13c-.65,1.2-1.56,1.7-2.51,1.18-.88-.48-1.45-1.5-1.69-2.35l-2.21,3.1c.21.84.94,1.95,1.99,2.51,2.51,1.35,5.05-.57,6.67-3.57,1.38-2.55,1.52-4.6.54-6.64-.71-1.55-.93-2.32-.32-3.47.49-.9,1.37-1.49,2.26-1.01.88.48,1.27,1.34,1.44,1.88l2.21-2.99c-.27-.8-.8-1.6-1.84-2.16-2.14-1.16-4.71.45-6.36,3.5-1.42,2.63-1.31,4.82-.36,6.7.7,1.34.77,2.24.18,3.33Zm-7.73-19.78l-8.27,18.28,2.12.96,3.3-7.29.63.29c.87.43,1,1.22.21,3.68-.77,2.41-1.21,4.03-1.31,4.61l2.19.99c.14-.8.96-3.35,1.62-5.6.53-1.81.72-3.19.29-4.01l.04-.08c1.08-.21,2.67-1.45,3.73-3.79.77-1.71,1.05-3.14.87-4.28-.19-1.38-.98-2.24-2.39-2.87-1.15-.52-2.24-.81-3.04-.88Zm-9.81-4.13l-7.12,19.07,6.19,2.32,1.32-3.54-4-1.49,1.69-4.53,3.58,1.34,1.31-3.51-3.58-1.34,1.48-3.96,3.8,1.42,1.32-3.54-5.99-2.24Zm-9.82.93l-4.72,15.81,2.24.67,4.72-15.81,2.72.81,1.11-3.71-7.65-2.28-1.11,3.71,2.69.8Zm-17.7,12.63l2.29.51,1.84-8.29,3.78.84-1.84,8.29,2.29.51,4.42-19.88-2.29-.51-1.71,7.67-3.78-.84,1.7-7.67-2.29-.51-4.42,19.88Zm-10.13-4.07c.7,1.9,1.93,3.01,3.8,3.27,1.36.19,2.81-.28,3.59-.66l1.48-10.62-3.83-.53-.5,3.56,1.59.22-.59,4.25c-.2.12-.65.18-1.17.11-1.91-.27-2.91-2.88-2.33-7.06.61-4.37,2.39-6.32,4.33-6.05,1.13.16,1.77.61,2.26,1.2l1-3.61c-.44-.52-1.39-1.17-2.72-1.35-3.37-.47-6.39,3.01-7.34,9.71-.41,2.96-.26,5.67.42,7.56Zm-7.35,1.87l2.33.18,1.54-20.3-2.33-.18-1.54,20.3Zm-9.16-.36l2.34.06.21-8.18,3.73.1.1-3.75-3.73-.1.12-4.65,3.99.1.1-3.77-6.33-.17-.53,20.35Zm-10.36-20.09l.79,20.35,6.6-.26-.15-3.77-4.26.17-.19-4.83,3.82-.15-.15-3.74-3.82.15-.16-4.23,4.05-.16-.15-3.77-6.39.25Zm-12.16,1.44l2.19,19.94,2.31-.25-.87-7.96.69-.08c.97-.08,1.48.54,2.06,3.06.56,2.46,1.01,4.08,1.22,4.64l2.39-.26c-.28-.76-.88-3.37-1.46-5.65-.46-1.83-1.01-3.11-1.79-3.6v-.09c.81-.73,1.55-2.6,1.27-5.16-.2-1.86-.7-3.24-1.43-4.13-.86-1.09-1.99-1.42-3.52-1.25-1.26.14-2.34.44-3.06.79Zm-6.81.77l3.35,20.08,2.31-.39-3.35-20.08-2.31.39Zm-10.36,2.12l4.41,19.88,2.29-.51-1.77-7.99,3.64-.81-.81-3.66-3.64.81-1.01-4.54,3.9-.86-.82-3.69-6.18,1.37Zm-18.82,5.72l6.61,19.26,2.04-.7-1.99-5.8c-1.08-3.14-2.04-5.85-2.99-8.4l.06-.02c1.24,2.1,2.74,4.33,4.04,6.22l4.65,6.71,2.33-.8-6.61-19.26-2.04.7,1.92,5.6c1,2.92,1.94,5.5,2.94,8h-.03c-1.2-2.01-2.59-4.21-3.87-6.04l-4.46-6.36-2.59.89Zm-9.91,4.09l7.99,18.73,6.08-2.59-1.48-3.47-3.93,1.67-1.9-4.45,3.52-1.5-1.47-3.45-3.52,1.5-1.66-3.89,3.73-1.59-1.48-3.47-5.88,2.51Zm-9.49,4.63l9.19,18.17,5.78-2.92-1.75-3.45-3.69,1.86-7.45-14.72-2.09,1.06Zm-8.85,5.04l10.29,17.57,5.58-3.27-1.95-3.34-3.56,2.09-8.34-14.23-2.02,1.18Zm-9.07,5.96l8.94,18.57,2-1.38-2.37-4.72,2.46-1.7,3.63,3.85,2.08-1.43-14.22-14.93-2.52,1.74Zm-9.7,7.36l12.62,15.98,1.84-1.45-5.07-6.43,2.93-2.31-2.32-2.94-2.93,2.31-2.88-3.65,3.13-2.47-2.34-2.96-4.97,3.92Zm-14.45,13.3l14.31,14.49,1.54-1.52-4.31-4.36c-2.33-2.36-4.37-4.38-6.34-6.27l.04-.04c2.03,1.35,4.35,2.71,6.33,3.85l7.1,4.03,1.75-1.73-14.31-14.49-1.53,1.52,4.16,4.21c2.17,2.19,4.13,4.12,6.12,5.93l-.02.02c-1.95-1.3-4.16-2.68-6.11-3.78l-6.78-3.79-1.95,1.93Zm-7.12,7.96l13.35,15.7,1.59-1.84-3.49-3.96,1.95-2.26,4.48,2.81,1.65-1.91-17.53-10.85-2,2.32Zm-6.04,7.59l16.2,12.33,1.42-1.86-16.2-12.33-1.42,1.86Zm-7.56,11.44l16.63,11.06c.44-.39,1.05-1.04,1.73-2.05,1.13-1.69,1.35-3.56.47-5.46-.84-1.74-2.68-3.83-5.92-5.99-3.02-2.01-5.51-2.85-7.41-2.82-1.78,0-3.02.73-4.12,2.38-.65.98-1.15,2-1.37,2.88Zm-5.43,8.77l16.25,12.68,1.18-2.13-4.22-3.17,1.45-2.61,4.96,1.84,1.23-2.21-19.37-7.08-1.49,2.68Zm-7.02,14.45l18.54,8.43.89-1.96-5.58-2.54c-3.03-1.38-5.65-2.54-8.16-3.59l.03-.06c2.38.54,5.03.98,7.29,1.33l8.07,1.23,1.02-2.25-18.54-8.43-.89,1.96,5.39,2.45c2.8,1.27,5.33,2.37,7.83,3.36v.03c-2.3-.52-4.86-1.02-7.07-1.34l-7.69-1.12-1.13,2.5Zm-3.7,9.67l18.07,9.92.83-2.29-4.67-2.46,1.02-2.81,5.19,1.03.86-2.38-20.25-3.89-1.04,2.88Zm5.77,16.95c5.62,1.57,10.36.97,11.32-2.49.34-1.2.13-2.28-.13-2.79l-3.58-.65c.25.57.3,1.38.11,2.08-.56,2-3.36,2.5-7.29,1.41-4.39-1.23-6.13-3.21-5.63-4.99.23-.82.75-1.36,1.26-1.7l-3.36-1.45c-.52.29-1.23,1.05-1.56,2.22-.84,3.03,2.17,6.49,8.87,8.36Zm-2.5,9.6l-.27,3.31,3.31.27.27-3.31-3.31-.27Zm-12.29,14.81l8.16.62-.28,3.71,3.73.28.28-3.71,4.64.35-.3,3.97,3.77.29.48-6.29-20.3-1.54-.18,2.33Zm-.86,12.73c-.05,3.03,3.94,5.13,10.64,5.24,5.62.09,10.33-1.57,10.38-4.75.05-3.04-4.48-5.11-10.58-5.21-5.8-.09-10.39,1.65-10.44,4.7v.02Zm1.14,17.77l20.3-1.55-.16-2.14-5.9.45c-3.07.24-5.81.49-8.48.83v-.03c2.25-.65,4.73-1.44,6.83-2.22l7.28-2.71-.21-2.73-20.3,1.55.16,2.14,6.11-.47c3.31-.25,6.17-.5,8.88-.79v.06c-2.34.67-4.88,1.56-7.03,2.34l-7.66,2.8.19,2.45Zm4.14,11.9c1.8.71,4.57,1,8.41.39,3.58-.57,5.98-1.64,7.36-2.94,1.31-1.2,1.73-2.58,1.42-4.53-.18-1.15-.51-2.24-.94-3.04l-19.72,3.14c-.06.59-.07,1.47.12,2.67.32,2,1.42,3.52,3.35,4.32Zm.76,14.57l19.04-7.9-.72-2.97-20.54,1.69.57,2.36,5.25-.52.7,2.9-4.89,2,.59,2.45Zm2.02,6.66l15.76-4.87.84,2.7,3.69-1.14-2.35-7.6-3.69,1.14.83,2.67-15.76,4.87.69,2.23Zm2.96,8.53l19.1-7.07-.81-2.19-19.1,7.07.81,2.19Zm14.87,8.55c5.14-2.27,8.72-5.74,7.44-8.65-1.23-2.78-6.21-2.77-11.79-.31-5.31,2.34-8.75,5.84-7.52,8.64h0c1.22,2.78,5.72,3.03,11.86.33Zm-3.57,15.43l17.9-9.7-1.02-1.89-5.21,2.82c-2.71,1.47-5.1,2.82-7.4,4.22v-.03c1.78-1.51,3.72-3.25,5.32-4.81l5.53-5.45-1.3-2.4-17.9,9.7,1.02,1.89,5.39-2.92c2.92-1.58,5.43-2.98,7.78-4.34l.03.05c-1.86,1.57-3.82,3.41-5.46,5.01l-5.85,5.69,1.17,2.16Zm10.78,15.47l2.77-2.36c-.6-.16-1.26-.64-1.67-1.23-1.19-1.7.2-4.18,3.54-6.52,3.73-2.62,6.37-2.71,7.43-1.2.49.69.57,1.44.51,2.04l3.25-1.68c.11-.58-.03-1.61-.72-2.61-1.8-2.56-6.39-2.42-12.07,1.57-4.77,3.35-7.32,7.39-5.27,10.32.71,1.02,1.68,1.55,2.24,1.66Zm7.67,10.47l13.71-15.4-1.94-2.37-17.76,10.46,1.54,1.88,4.5-2.75,1.89,2.31-3.54,3.93,1.6,1.95Zm8.59,9.16l14.7-14.09-1.49-1.55-4.27,4.1c-2.22,2.13-4.18,4.07-6.02,6.03l-.02-.02c1.33-1.93,2.75-4.12,3.87-6.05l3.9-6.71-1.89-1.97-14.7,14.09,1.49,1.55,4.43-4.24c2.4-2.3,4.45-4.31,6.36-6.24l.04.04c-1.38,2.01-2.78,4.3-3.95,6.27l-4.14,7.03,1.7,1.77Zm10.06,9.2l11.12-17.36-2.28-2.03-15.9,13.11,1.81,1.61,4.01-3.43,2.23,1.98-2.88,4.44,1.88,1.67Zm10.74,5.28c1.79-.73,3.98-2.44,6.33-5.55,2.18-2.89,3.17-5.32,3.26-7.23.11-1.77-.54-3.06-2.12-4.25-.93-.7-1.92-1.26-2.79-1.53l-12.03,15.93c.36.46.97,1.11,1.94,1.84,1.62,1.22,3.46,1.56,5.41.79Zm5.32,6.57l11.25-16.97-1.94-1.29-11.25,16.97,1.94,1.29Zm11.51,2.59l-3.67-2.16,2.45-4.17,3.28,1.93,1.9-3.23-3.28-1.93,2.14-3.65,3.48,2.05,1.91-3.26-5.49-3.23-10.32,17.55,5.68,3.34,1.91-3.25Zm9.46,9.07l9.01-18.26-1.93-.95-2.62,5.31c-1.36,2.76-2.54,5.25-3.6,7.72h-.03c.59-2.28,1.17-4.82,1.57-7.02l1.37-7.64-2.45-1.21-9.01,18.26,1.93.95,2.71-5.5c1.47-2.98,2.71-5.57,3.85-8.04l.05.03c-.62,2.36-1.15,4.99-1.57,7.24l-1.49,8.02,2.2,1.09Zm12.49,5.15l7.48-18.94-2-.79-2.17,5.51c-1.13,2.87-2.1,5.44-2.96,7.99h-.03c.4-2.32.78-4.9.99-7.12l.74-7.73-2.54-1-7.48,18.94,2,.79,2.25-5.7c1.22-3.09,2.25-5.77,3.17-8.33l.06.02c-.42,2.4-.73,5.07-.97,7.35l-.83,8.12,2.28.9Zm16.83-15.95l-6.09-1.89-6.03,19.45,6.29,1.95,1.12-3.61-4.06-1.26,1.43-4.62,3.64,1.13,1.11-3.58-3.64-1.13,1.25-4.04,3.86,1.2,1.12-3.61Zm15.09,5.42c-.69-1.64-1.84-2.5-3.78-2.87-1.15-.22-2.28-.28-3.18-.15l-3.74,19.61c.53.25,1.36.57,2.55.8,1.99.38,3.8-.14,5.2-1.68,1.28-1.45,2.49-3.95,3.22-7.78.68-3.56.49-6.18-.27-7.92Zm11.06-.53l-6.33-.73-2.33,20.23,6.55.76.43-3.75-4.23-.49.55-4.8,3.78.44.43-3.72-3.78-.44.48-4.2,4.01.46.43-3.75Zm4.92,5.72c.05-1.03.59-1.94,1.6-1.89,1,.05,1.72.66,2.1,1.07l.7-3.66c-.59-.6-1.41-1.1-2.59-1.16-2.42-.12-4.04,2.43-4.21,5.9-.15,2.99.89,4.91,2.55,6.21,1.2.91,1.65,1.68,1.59,2.92-.07,1.36-.68,2.21-1.75,2.15-1-.05-1.95-.73-2.53-1.39l-.66,3.75c.55.66,1.69,1.35,2.87,1.41,2.84.14,4.3-2.69,4.47-6.1.14-2.9-.61-4.81-2.37-6.23-1.3-1.09-1.84-1.69-1.77-2.99Zm9.08-12.9c76.37,0,138.29-61.91,138.29-138.29S263.39,46.91,187.02,46.91,48.73,108.82,48.73,185.2s61.91,138.29,138.29,138.29Zm12.21,13.48c-.11-1.99-.64-3.66-1.36-4.61-.75-1.08-1.83-1.56-3.27-1.48-1.43.08-2.43.32-3.14.6l1.15,20.06,2.32-.13-.42-7.3c.22.08.5.09.8.08,1.38-.08,2.54-.84,3.25-2.34.55-1.15.77-2.86.66-4.88Zm12.92,2.21c-.75-5.57-3.09-9.98-6.24-9.56-3.01.4-4.39,5.19-3.57,11.24.77,5.75,3.18,10.03,6.21,9.62h.02c3-.41,4.49-4.66,3.59-11.31Zm17.28,6.88l-5.15-19.71-2.99.7.47,6.84c.18,2.32.43,4.99.7,7.34h-.06c-.77-2.26-1.64-4.66-2.49-6.85l-2.53-6.42-3.04.71,3.96,19.98,2.11-.49-1.56-7.58c-.51-2.49-1.17-5.56-1.74-8.25h.03c.86,2.55,1.84,5.27,2.72,7.55l2.85,7.4,1.78-.41-.57-8.02c-.15-2.42-.39-5.34-.65-7.94h.03c.68,2.91,1.38,5.75,1.98,8.12l1.93,7.55,2.21-.51Zm7.22-17.12c-.61-1.9-1.54-3.37-2.48-4.12-1-.85-2.16-1.05-3.54-.6-1.36.44-2.27.93-2.88,1.38l6.19,19.11,2.21-.71-2.25-6.96c.23.02.51-.04.8-.13,1.32-.43,2.24-1.46,2.55-3.08.24-1.25.03-2.96-.6-4.89Zm10.68,11.07l-7.4-18.97-2.18.85,7.4,18.97,2.18-.85Zm10.3-4.48l-1.56-3.44-3.87,1.76-2-4.4,3.47-1.57-1.55-3.41-3.47,1.57-1.75-3.85,3.68-1.67-1.56-3.44-5.8,2.63,8.41,18.54,6-2.72Zm10.92-5.74c-.55-.6-2.09-2.79-3.48-4.68-1.12-1.52-2.11-2.5-3.01-2.66l-.04-.08c.48-.98.46-3-.77-5.26-.89-1.65-1.87-2.73-2.88-3.28-1.21-.68-2.37-.57-3.72.16-1.11.6-1.99,1.29-2.52,1.88l9.56,17.64,2.04-1.11-3.81-7.04.61-.33c.86-.43,1.57-.06,3.05,2.06,1.45,2.07,2.47,3.4,2.88,3.83l2.11-1.14Zm5.8-10.65c-1.55-2.45-3.27-3.58-5.53-3.72-1.69-.14-2.48-.32-3.18-1.42-.55-.87-.64-1.92.22-2.46.84-.53,1.79-.45,2.33-.34l-1.53-3.39c-.83-.16-1.78-.09-2.78.55-2.05,1.3-1.9,4.32-.04,7.25,1.6,2.53,3.56,3.5,5.67,3.6,1.5.05,2.32.42,2.99,1.47.73,1.15.72,2.19-.19,2.77-.84.54-2.01.53-2.87.32l1.62,3.44c.83.22,2.16.13,3.16-.5,2.4-1.52,1.96-4.68.13-7.56Zm21.65-9.1l-13.43-15.32-2.36,1.96,3.48,5.9c1.19,1.99,2.62,4.26,3.91,6.25l-.05.04c-1.7-1.69-3.56-3.45-5.3-5.02l-5.14-4.61-2.4,1.99,12.5,16.09,1.67-1.38-4.79-6.08c-1.57-1.99-3.53-4.45-5.25-6.6l.02-.02c1.92,1.9,4.01,3.9,5.81,5.54l5.87,5.34,1.41-1.17-4.11-6.92c-1.22-2.09-2.74-4.6-4.14-6.81l.02-.02c1.91,2.3,3.82,4.53,5.42,6.38l5.11,5.89,1.75-1.45Zm3.05-17.48c-3.97-3.98-8.51-6.07-10.76-3.82-2.15,2.15-.34,6.79,3.97,11.11,4.1,4.11,8.6,6.05,10.77,3.9h.01c2.14-2.15.75-6.44-3.99-11.18Zm15.22-1.64c-.73-.36-2.94-1.86-4.92-3.13-1.59-1.02-2.86-1.59-3.76-1.41l-.07-.06c.1-1.09-.64-2.96-2.59-4.64-1.42-1.22-2.72-1.89-3.86-2.04-1.37-.21-2.42.31-3.42,1.48-.82.95-1.41,1.91-1.69,2.66l15.21,13.08,1.51-1.76-6.07-5.22.45-.52c.65-.71,1.45-.62,3.59.83,2.09,1.41,3.52,2.3,4.06,2.56l1.56-1.82Zm4.95-6.46l-13.21-9.88,1.69-2.26-3.1-2.32-4.77,6.37,3.1,2.32,1.68-2.24,13.2,9.88,1.4-1.87Zm2.6-14.45c-2.43-1.58-4.46-1.89-6.57-1.08-1.6.58-2.39.74-3.48.03-.86-.56-1.38-1.48-.83-2.33.54-.84,1.44-1.16,1.98-1.28l-2.81-2.45c-.82.2-1.66.66-2.3,1.66-1.32,2.04.07,4.72,2.99,6.61,2.51,1.63,4.7,1.7,6.65.91,1.39-.58,2.29-.58,3.33.09,1.14.74,1.57,1.69.98,2.6-.54.84-1.61,1.32-2.48,1.49l2.91,2.46c.85-.14,2.02-.78,2.66-1.77,1.55-2.38-.17-5.07-3.03-6.93Zm13.4-12.04l-3.37-1.71-1.92,3.79-4.31-2.19,1.72-3.4-3.34-1.7-1.72,3.4-3.77-1.92,1.83-3.6-3.37-1.71-2.88,5.68,18.16,9.22,2.98-5.87Zm5.11-11.72l-18.78-7.87-.83,1.98,5.46,2.29c2.84,1.19,5.4,2.21,7.93,3.12v.03c-2.31-.45-4.89-.88-7.1-1.14l-7.71-.9-1.06,2.52,18.78,7.87.83-1.98-5.66-2.37c-3.06-1.28-5.72-2.37-8.26-3.35l.02-.06c2.39.47,5.05.84,7.33,1.12l8.1,1,.95-2.27Zm-.24-18.47c-2.78-.82-4.82-.53-6.61.85-1.37,1.01-2.08,1.39-3.32,1.03-.99-.29-1.75-1.02-1.46-2,.28-.96,1.04-1.52,1.53-1.79l-3.39-1.54c-.72.43-1.4,1.11-1.73,2.25-.68,2.33,1.42,4.5,4.75,5.48,2.87.84,4.99.28,6.63-1.03,1.16-.96,2.03-1.21,3.21-.87,1.3.38,1.98,1.17,1.68,2.21-.28.96-1.17,1.72-1.95,2.13l3.49,1.52c.77-.38,1.71-1.32,2.04-2.46.8-2.73-1.61-4.81-4.89-5.77Zm8.21-8.84l-3.68-.82-.93,4.15-4.72-1.05.83-3.72-3.66-.82-.83,3.72-4.13-.92.88-3.94-3.68-.82-1.39,6.22,19.87,4.43,1.43-6.43Zm1.96-11.86c-.81.08-3.48-.02-5.83-.05-1.89-.02-3.26.17-3.94.8h-.09c-.49-.99-2.11-2.18-4.65-2.57-1.85-.28-3.31-.16-4.36.31-1.28.55-1.89,1.55-2.12,3.06-.19,1.24-.18,2.36-.02,3.15l19.83,3.02.35-2.29-7.91-1.21.1-.68c.18-.95.9-1.29,3.48-1.19,2.52.09,4.2.08,4.8.02l.36-2.37Zm.84-8.95l-20.02-5.1-.2,2.48,8.57,2.01c2.29.54,4.67,1.05,7.09,1.51v.05c-2.55.04-4.87.18-7.33.34l-8.68.57-.2,2.56,20.56-1.69.22-2.73Zm.41-9.55l-20.36-.45-.05,2.34,20.36.45.05-2.33ZM45.41,107.54l-.02.04c.99.71,2.25,1.61,3.21,2.31l3.47,2.65,1.12-2.01-4.09-1.54c-1.14-.44-2.57-1.03-3.68-1.47Zm245.43,183.82c-1.14,1.14.39,3.96,3.08,6.65,2.71,2.72,5.49,4.17,6.6,3.06h.01c1.12-1.13-.31-3.84-3.13-6.67-2.58-2.59-5.42-4.19-6.56-3.05ZM34.71,131.06l-.02.04c1.09.54,2.48,1.23,3.54,1.77l3.85,2.07.78-2.16-4.28-.86c-1.19-.25-2.71-.6-3.87-.86Z"/>
        <circle class="cls-4" cx="189.22" cy="179.61" r="46.76"/>
    </g>
    <g id="Pantone_873_C">
        <path class="cls-6" d="m189.14,212.62c-18.01,0-32.67-14.66-32.67-32.67s14.66-32.67,32.67-32.67,32.67,14.66,32.67,32.67-14.66,32.67-32.67,32.67Zm0-63.34c-16.91,0-30.67,13.76-30.67,30.67s13.76,30.67,30.67,30.67,30.67-13.76,30.67-30.67-13.76-30.67-30.67-30.67Z"/>
        <path class="cls-7" d="m226.42,136.07c-1.1,2.33-3.06,4.96-4.72,6.95-.35.41-.67.79-.99,1.15-8.35-7.29-19.27-11.72-31.23-11.72-10.75,0-20.67,3.58-28.63,9.6-1.34-1.59-3.84-4.7-5.4-7.47-.64-1.14-.98-2.51-.98-3.82,0-1.26.31-2.45.83-3.26.53-.82,1.14-1.29,2.02-1.47.6-.12,1.28-.16,2.04-.16,1.44,0,3.16.17,5.09.17,2.81,0,6.13-.41,9.57-2.44,3.44-2.02,6.13-3.92,8.68-5.24,2.56-1.32,4.91-2.11,7.98-2.12,3.18-.01,6.55,1.38,9.78,3.27,3.23,1.88,6.27,4.18,8.99,5.81,4.37,2.65,7.6,3.01,11.08,2.97.84,0,1.7-.01,2.64-.01,1.31.01,2.21.47,2.91,1.24.68.77,1.12,1.91,1.12,3.29,0,1.01-.24,2.13-.78,3.28h0Zm-80.83,6.94c-1.15-.55-2.27-.78-3.28-.78-1.38,0-2.52.44-3.29,1.13-.76.69-1.22,1.6-1.24,2.91,0,.93.01,1.8.01,2.64.03,3.48-.33,6.71-2.97,11.08-1.62,2.72-3.93,5.75-5.81,8.99-1.88,3.23-3.28,6.6-3.27,9.78,0,3.07.79,5.42,2.12,7.98,1.32,2.55,3.22,5.24,5.24,8.68,2.03,3.44,2.45,6.76,2.44,9.57,0,1.93-.18,3.65-.17,5.09,0,.76.05,1.44.16,2.04.18.88.65,1.5,1.47,2.02.82.51,2,.83,3.26.83,1.31,0,2.68-.33,3.82-.98,2.77-1.56,5.88-4.06,7.47-5.4-6.02-7.96-9.6-17.88-9.6-28.63,0-11.96,4.43-22.88,11.72-31.23-.35-.31-.73-.64-1.15-.99-1.99-1.67-4.62-3.62-6.95-4.72h0Zm6.94,80.83c-.55,1.15-.79,2.27-.79,3.27,0,1.38.44,2.52,1.13,3.29.7.77,1.6,1.23,2.91,1.24.93,0,1.79-.02,2.64-.02,3.48-.03,6.71.33,11.08,2.98,2.72,1.62,5.75,3.93,8.99,5.81,3.23,1.88,6.6,3.28,9.78,3.27,3.07,0,5.42-.79,7.98-2.12,2.55-1.32,5.24-3.22,8.68-5.24,3.44-2.03,6.76-2.45,9.57-2.45,1.93,0,3.65.18,5.09.17.76,0,1.45-.04,2.04-.16.88-.18,1.5-.65,2.02-1.47.51-.82.83-2,.83-3.26,0-1.31-.33-2.68-.97-3.82-1.56-2.77-4.05-5.88-5.4-7.46-7.96,6.02-17.88,9.6-28.63,9.6-11.96,0-22.88-4.43-31.23-11.73-.31.35-.64.73-.99,1.15-1.67,1.99-3.62,4.62-4.72,6.95h0Zm72.73-12.65c.35.31.73.64,1.15.98,1.99,1.67,4.62,3.62,6.95,4.72,1.15.55,2.27.78,3.28.78,1.38,0,2.52-.44,3.29-1.12.76-.69,1.23-1.6,1.24-2.91,0-.93-.02-1.8-.02-2.64-.03-3.48.33-6.71,2.98-11.08,1.62-2.72,3.93-5.75,5.81-8.99,1.88-3.23,3.28-6.6,3.27-9.78,0-3.07-.79-5.42-2.12-7.98-1.32-2.55-3.22-5.24-5.24-8.68-2.03-3.44-2.45-6.76-2.45-9.57,0-1.93.18-3.65.17-5.09,0-.76-.04-1.44-.16-2.04-.18-.88-.65-1.5-1.47-2.03-.82-.51-2-.83-3.26-.83-1.31,0-2.68.33-3.82.98-2.77,1.56-5.88,4.05-7.47,5.4,6.02,7.96,9.6,17.88,9.6,28.63,0,11.96-4.43,22.88-11.72,31.23h0Zm-35.79-.15c-17.14,0-31.08-13.95-31.08-31.09s13.94-31.08,31.08-31.08,31.08,13.94,31.08,31.08-13.94,31.09-31.08,31.09h0Z"/>
        <path class="cls-6" d="m189.14,228.46c-11.73,0-23.05-4.25-31.89-11.97-.97-.85-1.89-1.72-2.74-2.58-.58-.59-1.14-1.2-1.69-1.82-.86-.97-1.66-1.94-2.39-2.91-6.41-8.48-9.8-18.59-9.8-29.23,0-11.73,4.25-23.05,11.97-31.89.85-.97,1.72-1.89,2.58-2.74.59-.58,1.2-1.14,1.82-1.69.96-.85,1.94-1.66,2.91-2.39,8.48-6.41,18.59-9.8,29.23-9.8,11.73,0,23.05,4.25,31.89,11.97.97.85,1.89,1.72,2.74,2.58.58.59,1.15,1.2,1.7,1.82.86.97,1.66,1.95,2.39,2.91h0c6.41,8.48,9.8,18.59,9.8,29.23,0,11.73-4.25,23.05-11.97,31.89-.85.97-1.72,1.89-2.58,2.74-.59.58-1.2,1.14-1.82,1.69-.97.86-1.94,1.66-2.91,2.39-8.48,6.41-18.59,9.8-29.23,9.8Zm0-95.03c-10.21,0-19.9,3.25-28.03,9.4-.93.7-1.86,1.47-2.79,2.29-.6.53-1.18,1.07-1.75,1.62-.83.81-1.66,1.69-2.47,2.63-7.4,8.47-11.48,19.33-11.48,30.57,0,10.21,3.25,19.9,9.4,28.03.7.92,1.47,1.86,2.29,2.79.53.6,1.07,1.18,1.62,1.75.81.83,1.7,1.66,2.63,2.47,8.47,7.4,19.33,11.48,30.58,11.48,10.21,0,19.9-3.25,28.03-9.39.92-.7,1.86-1.47,2.79-2.29.59-.53,1.18-1.07,1.75-1.62.83-.81,1.66-1.69,2.48-2.63,7.4-8.47,11.48-19.33,11.48-30.58,0-10.21-3.25-19.9-9.4-28.03h0c-.7-.92-1.47-1.86-2.29-2.79-.53-.59-1.07-1.18-1.62-1.74-.81-.83-1.69-1.66-2.63-2.48-8.47-7.4-19.33-11.48-30.57-11.48Z"/>
        <path class="cls-6" d="m149.44,130.75c0,2.17.55,4.29,1.58,6.12,1.81,3.2,4.45,6.47,5.87,8.14l.66.78.77-.68c.92-.82,1.86-1.59,2.79-2.29l.84-.64-.68-.81c-1.05-1.24-3.68-4.45-5.29-7.31h0c-.54-.95-.85-2.16-.85-3.33,0-1.03.25-2.05.67-2.72.39-.61.79-.91,1.37-1.02.5-.1,1.11-.15,1.86-.14.66,0,1.39.04,2.17.08.88.04,1.88.1,2.92.1,2.42-.03,6.14-.25,10.08-2.58,1.44-.85,2.72-1.66,3.96-2.44,1.73-1.09,3.22-2.03,4.67-2.78,2.74-1.42,4.92-2,7.53-2.01h.04c2.61,0,5.63,1.02,9.24,3.13,1.74,1.01,3.42,2.15,5.04,3.24,1.38.93,2.67,1.81,3.92,2.56,4.37,2.65,7.69,3.15,11.6,3.12h1.17c.47,0,.96-.01,1.46-.01.94,0,1.61.29,2.17.9.56.63.87,1.57.87,2.63,0,.91-.24,1.9-.69,2.85-1.19,2.52-3.39,5.3-4.59,6.73-.34.41-.66.78-.97,1.13l-.66.75.76.66c.93.82,1.82,1.65,2.63,2.48l.75.77.71-.8c2.04-2.31,4.83-5.78,6.5-9.27.82-1.73,1.24-3.51,1.24-5.29,0-.38-.03-.75-.07-1.12,5.82-13.88,7.83-26.68,6.09-38.67-1.68-11.62-11.91-21.33-27.38-26.03h0s-.35-.12-.35-.12c-5.95-1.77-12.12-2.62-17.86-2.46-7.54.21-13.75.92-19,2.17l-.39.09h0c-15.67,3.87-23.69,12.94-25.96,29.37-1.32,9.56.57,19.38,4.18,29.31-1,1.61-1.34,3.29-1.35,5.43Zm58.05-12.1c-1.65-1.11-3.05-2.06-5.02-3.21-3.12-1.81-7.33-3.89-12.13-3.9h-.06c-3.44,0-6.65.84-10.09,2.65-1.74.91-3.4,1.96-5.16,3.07-.11.07-.23.14-.34.22-1.2-3.19-2.22-5.97-2.99-8.21-1.29-3.73-2.22-7.57-2.79-11.43,3.78-2.07,24.72-12.33,44.4,2-.31,1.86-.66,3.67-1.1,5.47-.95,3.89-2.6,8.42-4.72,13.35h0Zm28.09-25.37c1.58,10.94-.06,22.6-4.98,35.22,0,0,0,0,0,0-.36-.77-.82-1.48-1.37-2.1-1.57-1.79-3.89-2.82-6.37-2.82-.53,0-1.03,0-1.5,0h-1.17c-3.24-.03-4.97-.14-8.69-2.31-.71-.42-1.5-.94-2.33-1.49,2.29-5.28,4-9.96,4.98-14.01.37-1.53.68-3.06.96-4.62l.03.02.26-1.64c.16-1.02.29-2,.4-2.97.04-.32.06-.62.09-.93.06-.64.12-1.28.17-1.9.02-.35.04-.7.06-1.04.03-.57.06-1.12.07-1.67,0-.34.02-.68.02-1.02,0-.54,0-1.06,0-1.58,0-.31-.01-.63-.02-.93-.02-.55-.05-1.07-.09-1.6-.02-.25-.03-.51-.05-.76-.06-.72-.13-1.42-.22-2.09,0-.04,0-.08-.01-.12-.09-.72-.2-1.41-.32-2.09-.04-.22-.08-.42-.12-.63-.09-.45-.17-.9-.27-1.33-.05-.24-.11-.47-.16-.7-.09-.39-.19-.77-.29-1.14-.06-.23-.12-.45-.19-.67-.1-.36-.21-.71-.32-1.05-.06-.2-.13-.41-.2-.6-.12-.36-.25-.7-.37-1.04-.06-.16-.12-.32-.17-.47-.17-.45-.35-.88-.53-1.29-.01-.03-.03-.07-.04-.1-.2-.45-.39-.87-.59-1.28-.06-.11-.11-.22-.17-.33-.11-.22-.22-.44-.32-.64,13.51,4.68,22.35,13.42,23.84,23.72Zm-63.76-21.12c.16-.35.32-.7.49-1.04.1-.2.2-.39.3-.58.16-.3.31-.6.48-.89.12-.21.24-.4.36-.61.13-.22.26-.43.39-.64,5.02-1.16,10.98-1.82,18.18-2.02,5.42-.15,11.24.64,16.88,2.27.06.09.12.19.18.28.09.15.18.29.27.45.09.16.19.33.29.5.09.17.19.33.28.51.1.18.2.38.3.57.09.18.19.36.28.55.1.21.21.44.31.67.09.19.18.38.26.58.11.25.22.53.32.8.08.2.16.38.24.59.13.34.25.7.38,1.06.05.15.11.3.16.45.17.53.34,1.08.5,1.65.04.14.07.29.11.44.12.44.23.88.34,1.35.05.22.09.46.14.68.09.41.17.81.25,1.24.05.26.08.54.13.81.07.41.13.82.19,1.25.04.29.07.6.1.91.05.43.09.85.13,1.29.03.32.04.66.06.99.03.45.05.89.07,1.35.01.35.02.71.02,1.07,0,.47.01.94,0,1.42,0,.38-.02.76-.03,1.15-.02.49-.04.98-.06,1.49-.02.4-.05.81-.08,1.22-.04.51-.09,1.03-.14,1.56-.04.43-.09.86-.15,1.29-.03.25-.07.51-.1.76-7.9-5.48-15.96-7.26-23.09-7.26-10.34,0-18.74,3.74-21.92,5.38-.01-.11-.03-.22-.04-.33-.03-.3-.06-.6-.08-.89-.03-.37-.06-.75-.09-1.12-.02-.3-.04-.6-.05-.9-.02-.36-.04-.73-.05-1.09,0-.3-.02-.6-.02-.9,0-.36,0-.71,0-1.07,0-.3,0-.59.01-.89,0-.35.02-.7.04-1.05.01-.29.03-.58.04-.87.02-.35.05-.69.08-1.03.02-.29.05-.57.08-.85.03-.34.08-.69.12-1.03.03-.28.07-.55.11-.82.05-.35.11-.69.16-1.03.04-.26.08-.52.13-.78.06-.35.14-.69.21-1.03.05-.25.1-.49.16-.74.08-.36.17-.71.27-1.07.06-.22.11-.44.17-.66.11-.4.23-.79.35-1.18.05-.17.1-.34.15-.5.36-1.11.77-2.19,1.23-3.23.07-.17.15-.33.23-.49Zm-23.23,24.13c2.04-14.81,9.02-23.28,22.51-27.17-.1.18-.19.37-.28.55-.12.22-.23.44-.34.67-.15.31-.3.62-.44.94-.1.22-.2.43-.3.65-.15.34-.29.7-.43,1.05-.08.2-.16.39-.24.6-.17.44-.32.88-.47,1.33-.04.12-.09.24-.13.36-.19.57-.36,1.16-.53,1.75-.04.15-.07.29-.11.44-.12.45-.23.9-.34,1.35-.05.22-.09.44-.14.66-.08.39-.17.78-.24,1.18-.05.25-.09.5-.13.74-.06.37-.13.75-.18,1.13-.04.26-.07.53-.1.8-.05.37-.09.74-.13,1.12-.03.28-.05.55-.08.83-.03.37-.06.75-.08,1.12-.02.28-.03.57-.05.85-.02.38-.03.76-.04,1.14,0,.28-.01.57-.02.86,0,.39,0,.78,0,1.17,0,.28,0,.57.01.85.01.41.03.82.05,1.24.01.27.02.54.04.81.03.46.07.92.11,1.38.02.23.04.46.06.69.07.69.15,1.39.24,2.09l.2,1.5.04-.02c.59,3.72,1.5,7.41,2.75,11,.81,2.34,1.88,5.26,3.15,8.63h0c-.54.33-1.08.66-1.65,1-2.69,1.57-5.05,1.79-7.2,1.8-.87,0-1.66-.04-2.53-.08-.85-.04-1.7-.09-2.56-.09-1.12,0-2.05.08-2.92.24-1.45.27-2.78.98-3.85,2.02-3.22-9.25-4.87-18.36-3.66-27.15Z"/>
        <path class="cls-6" d="m227.86,233.78c.62-1.39.96-2.96.96-4.63,0-2.17-.55-4.29-1.58-6.12-1.81-3.2-4.45-6.47-5.87-8.14l-.66-.78-.77.68c-.93.82-1.87,1.59-2.79,2.29l-.84.64.68.81c1.05,1.24,3.67,4.44,5.29,7.31h0c.54.95.85,2.16.84,3.33,0,1.03-.25,2.05-.67,2.72-.39.61-.79.91-1.37,1.03-.5.1-1.1.14-1.86.14-.67,0-1.39-.04-2.17-.08-.88-.04-1.88-.1-2.92-.1-2.48-.02-6.14.25-10.08,2.58-1.44.85-2.72,1.65-3.96,2.43-1.73,1.09-3.22,2.03-4.67,2.78-2.74,1.42-4.92,2-7.52,2.01h-.03c-2.61,0-5.63-1.02-9.24-3.13-1.74-1.01-3.42-2.14-5.05-3.24-1.37-.93-2.67-1.81-3.92-2.55-4.23-2.56-7.47-3.12-11.22-3.12-.53,0-1.08,0-1.63,0-.45,0-.9,0-1.37,0-.94,0-1.61-.29-2.17-.9-.56-.63-.87-1.57-.87-2.63,0-.92.24-1.9.69-2.85,1.19-2.52,3.39-5.3,4.59-6.74.34-.41.66-.78.97-1.13l.66-.75-.76-.66c-.93-.82-1.82-1.65-2.63-2.48l-.75-.77-.71.8c-2.04,2.31-4.83,5.79-6.5,9.27-.81,1.7-1.24,3.53-1.24,5.29,0,2.37.77,4.57,2.16,6.22-10.83,19.81-25.32,32.37-25.5,32.52l-.96.82,1.02.75c.14.1,14.39,10.69,17.49,30.38l.32,2.06,1.4-1.55c17.56-19.36,27.9-41.49,32.84-54.03,0,0,0,0,0,0,.1.06.19.12.28.17,3.12,1.81,7.32,3.89,12.18,3.9,3.44,0,6.65-.84,10.1-2.65,1.11-.58,2.2-1.23,3.29-1.9-.03.02-.07.04-.1.06,15.95,35.91,33.31,52.84,33.53,53.06l1.6,1.53.09-2.21c.71-17.03,15.71-30.1,15.86-30.23l.8-.69-.73-.76c-.17-.18-12.43-13.04-24.55-30.78Zm-85.31,61.67c-3.29-16.49-13.7-26.2-16.96-28.89,3.35-3.08,15.37-14.77,24.8-31.82,0,0,0,0,0,0,1.42,1.02,3.17,1.58,5,1.58.52,0,1.03,0,1.51,0,.41,0,.81,0,1.17,0,3.24.03,4.97.15,8.69,2.32,1.05.62,2.27,1.44,3.55,2.31,1.07.72,2.24,1.51,3.47,2.29-4.69,12.01-14.54,33.28-31.22,52.22Zm92.1-1.55c-4.56-4.93-18.6-21.52-31.69-51.09.09-.06.18-.11.27-.16,1.19-.75,2.41-1.52,3.73-2.3,2.69-1.57,5.05-1.79,7.2-1.8.83,0,1.66.04,2.52.09.85.04,1.71.09,2.57.09,1.12,0,2.05-.08,2.92-.24,1.8-.34,3.42-1.35,4.57-2.82,0,0,0,0,0,0,10.41,15.11,20.77,26.56,23.52,29.53-3.06,2.86-14,14-15.61,28.7Z"/>
        <path class="cls-6" d="m126.43,194.03c.75,1.19,1.52,2.42,2.3,3.74,1.57,2.69,1.79,5.05,1.8,7.2,0,.83-.04,1.66-.08,2.53-.04.85-.09,1.7-.09,2.56,0,1.12.08,2.05.24,2.92.39,2.1,1.71,3.97,3.61,5.13,1.62,1,3.6,1.52,5.73,1.53,2.18,0,4.29-.55,6.12-1.58,3.2-1.82,6.48-4.46,8.15-5.87l.78-.66-.68-.77c-.82-.93-1.59-1.87-2.29-2.79l-.64-.84-.81.68c-1.24,1.05-4.45,3.68-7.31,5.29h0c-.95.54-2.15.85-3.31.85h-.01c-1.02.04-2.05-.25-2.72-.67-.61-.39-.91-.79-1.03-1.37-.1-.5-.14-1.11-.14-1.86,0-.67.04-1.39.08-2.17.04-.88.1-1.87.1-2.91,0-2.44-.25-6.14-2.58-10.08-.85-1.44-1.65-2.72-2.44-3.96-1.09-1.73-2.02-3.22-2.78-4.67-1.42-2.74-2-4.92-2.01-7.52,0-2.62,1.01-5.65,3.13-9.28,1.01-1.74,2.14-3.42,3.24-5.04.93-1.38,1.81-2.67,2.56-3.93,2.65-4.37,3.16-7.68,3.12-11.6v-1.16c0-.47-.01-.96-.01-1.46,0-.94.29-1.61.9-2.17,1.18-1.05,3.44-1.15,5.47-.18,2.53,1.2,5.3,3.39,6.74,4.59.41.34.78.66,1.13.97l.75.66.66-.75c.82-.93,1.65-1.82,2.48-2.63l.77-.75-.8-.71c-2.31-2.04-5.79-4.83-9.27-6.5-1.7-.81-3.53-1.24-5.29-1.24-2.45,0-4.72.82-6.39,2.3-1.8,1.58-2.83,3.92-2.82,6.42,0,.51,0,.99,0,1.45v1.18c-.02,3.24-.14,4.96-2.31,8.69-.62,1.05-1.44,2.27-2.31,3.55-1.11,1.64-2.37,3.51-3.52,5.48-1.81,3.13-3.89,7.33-3.9,12.13,0,3.46.83,6.69,2.65,10.15.91,1.74,1.95,3.39,3.06,5.15Z"/>
        <path class="cls-6" d="m254.89,171.01c-.91-1.74-1.95-3.39-3.06-5.15-.75-1.19-1.52-2.42-2.3-3.74-1.57-2.69-1.8-5.05-1.8-7.2,0-.83.04-1.65.08-2.51.04-.85.09-1.71.09-2.58,0-1.12-.08-2.05-.24-2.92-.39-2.1-1.71-3.97-3.61-5.13-1.62-1-3.6-1.52-5.73-1.53-2.17,0-4.29.55-6.12,1.58-3.19,1.81-6.47,4.45-8.14,5.86l-.78.66.68.77c.82.93,1.59,1.87,2.29,2.79l.64.84.81-.68c1.24-1.05,4.44-3.67,7.31-5.29.95-.54,2.15-.85,3.32-.85,0,0,.02,0,.03,0,1.02,0,2.03.25,2.7.67.61.39.91.79,1.03,1.37.1.49.14,1.1.14,1.85,0,.67-.04,1.39-.08,2.17-.04.88-.1,1.87-.1,2.92,0,2.44.25,6.14,2.58,10.08.85,1.44,1.66,2.72,2.44,3.97,1.09,1.72,2.02,3.21,2.78,4.66,1.42,2.74,2,4.92,2,7.52,0,2.61-1.02,5.65-3.13,9.28-1.01,1.74-2.15,3.43-3.25,5.05-.93,1.37-1.8,2.67-2.55,3.92-2.65,4.37-3.16,7.68-3.12,11.6,0,.41,0,.83,0,1.26,0,.45,0,.9,0,1.37,0,.94-.29,1.61-.9,2.17-1.18,1.05-3.43,1.16-5.47.18-2.52-1.19-5.3-3.38-6.74-4.59-.41-.34-.78-.66-1.12-.97l-.75-.66-.66.76c-.82.93-1.65,1.82-2.48,2.63l-.77.75.8.71c2.31,2.04,5.79,4.83,9.27,6.51,1.73.82,3.5,1.24,5.29,1.24,2.45,0,4.72-.82,6.39-2.3,1.8-1.58,2.83-3.92,2.82-6.42,0-.51,0-1,0-1.46,0-.41,0-.8,0-1.17.03-3.24.15-4.97,2.32-8.69.62-1.05,1.44-2.26,2.3-3.54,1.12-1.65,2.38-3.52,3.53-5.49,1.81-3.12,3.89-7.32,3.9-12.13,0-3.46-.83-6.69-2.65-10.15Z"/>
        <path class="cls-6" d="m213.23,166.06c-.54-.54-1.29-.81-2.22-.81-1.07,0-2.38.33-3.99.77-.35.09-.81.22-1.03.27-.05,0-.1-.02-.15-.02-.24-.03-.57-.08-.97-.08-.65,0-1.31.12-2.03.37-1.19.41-2.01.66-3.2.66-.56,0-1.14.07-1.69.16-.96-5.44-1.04-5.52-1.59-6.06l-.15-.14c.07-1.29.07-2.17-.26-2.91-.55-1.25-1.84-1.8-2.88-2.24-.09-.04-.2-.08-.3-.13-.14-.32-.32-.77-.46-1.13-1.25-3.16-2.08-5.24-4.14-5.24-2.19,0-2.91,2.37-3.82,5.37-.07.21-.14.46-.21.69-.38.09-.82.28-1.21.67-.65.65-.76,1.17-1,4.66-.03.47-.07.99-.1,1.48l-1.59.05-.12,2.02-.15,2.57c-2.27-.8-5.23-1.77-6.6-1.96-1.45-.2-4.4-1.24-5.41-1.62l-2.51-.95-.46,2.64c-.56,3.23,1,6.31,1.95,7.83-.21,1.12-.3,2.89.46,4.92.79,2.1,2.17,3.52,3.1,4.29.08.64.2,1.47.36,2.17.37,1.54,1.65,2.91,2.83,4.08h0c-.56.91-1.12,1.73-1.33,1.95-.63.63-.89,1.33-1.06,1.8-.05.14-.12.33-.18.39-1.8,1.15-2.39,3.92-2.56,5.06l-.38,2.54h2.56c.74,0,1.89.01,2.76.05.05.07.11.14.18.21.34.36.97.78,1.99.78.67,0,2.26-.32,3.98-.72v1.23l2.76-.7c.52-.13,1.1-.27,1.62-.39v2.04c0,3.32,1.23,5.34,4.97,7.77l1.74.11,2.07-.33,1.39-1.52,1.3-1.76-1.74-1.32c-.94-.71-1.96-1.7-2.19-2.13-.08-.4-.13-1.42-.17-2.61.51.08,1.09.14,1.77.14,2.77,0,4.31.17,4.79.32l.19.06c.55.17,1.3.41,2.15.41,1.51,0,2.78-.74,3.64-2.13.04,0,.09,0,.14.01.22.02.43.04.62.04,1.01,0,1.64-.42,2-.78,1.53-1.53.49-3.45-.13-4.59-.14-.25-.28-.51-.41-.78-.22-.47-.61-1.13-1.1-1.98-.45-.78-1.28-2.21-1.71-3.11.54-.5,1.4-1.2,1.92-1.63,1.93-1.57,2.82-2.29,2.82-3.6,0-.34-.06-.66-.16-.95.72-.92,1.49-1.86,1.86-2.24,1.39-1.39,2.12-3.56,2.12-4.97,0-.75.26-2.14.58-2.76.07-.13.15-.27.23-.43.89-1.63,2.22-4.09.48-5.84Zm-16.63,4.34c.1-.13.11-.3.06-.44.66-.2,1.92-.54,2.99-.54,1.52,0,2.58-.32,3.91-.78,1.34-.46,1.84-.14,2.53-.14.3,0,1.24-.28,2.27-.55-1.6.82-3.13,1.6-5.09,2.19-2.12.65-3.76,1.42-5.34,2.18-.47.22-.93.44-1.4.66-.72.33-1.23.61-1.72.88-.88.49-1.64.91-3.42,1.44-1.42.42-2.33,1.08-2.9,1.66v-.06l2.12-2.12c.37-.37,1.15-.82,1.98-1.31,1.46-.86,3.12-1.83,4-3.07Zm-2.09-7.38c.13-.1.24-.2.3-.14.12.12,1.01,5.15,1.29,6.74-.12.02-.24.09-.32.2-.76,1.06-2.39,2.02-3.7,2.78-.92.54-1.72,1.01-2.18,1.47l-1.39,1.4c.02-.85.05-1.82.09-2.87.1-.06.18-.14.22-.25,0-.01.51-1.46,1.67-3.51,1.18-2.1,3.09-4.58,3.88-5.37.12-.12.16-.29.13-.45Zm-2.09-4.87c.66.28,1.34.6,1.52,1,.25.58,0,2.54,0,3.48-.1.02-.19.05-.27.13-.85.85-2.8,3.39-4.04,5.59-.37.66-.67,1.24-.91,1.75.07-1.55.14-3.18.2-4.83.02-.02.05-.03.07-.05.04-.04,1.06-1.06,1.9-2.33l.28-.41c.59-.88.73-1.09,1.12-2.24.29-.88.22-1.63.13-2.08Zm-1.29-.66c.06.06.15.12.26.18-.06.13-.08.27-.02.41.01.03.32.8-.02,1.83-.34,1.02-.43,1.15-1,2l-.28.42c-.36.54-.76,1.04-1.09,1.42.06-1.81.1-3.6.1-5.25,0-3-.37-5.37-.9-6.77.88,0,2.49,5.3,2.95,5.76Zm-2.95-5.76h0c.46,1.18.37,3.8.37,6.77,0,1.47-.05,3.07-.11,4.7-.22-.44-.49-.92-.81-1.38l-.12-.17c-.76-1.12-.8-1.18-1-2.26l-.08-.44c-.13-.69-.26-1.34-.11-1.49.19-.2.19-.51,0-.71-.05-.05-.12-.09-.19-.11.52-1.59,1.36-4.9,2.05-4.9Zm-.42,42.23c-.8.31-2.45.89-3.27.89-.33,0-.71.07-1.11.17.45-.35.91-.68,1.3-.89,1.15-.61,2.27-1.32,2.65-1.57.17.01.31.02.43.02,0,.51,0,.97,0,1.38Zm-3.27-36.15c.14-.14.45-.09.76-.13-.01.41.08.89.19,1.45l.08.43c.24,1.29.38,1.5,1.16,2.65l.12.17c.83,1.22,1.37,2.64,1.37,2.66.03.09.09.16.17.21-.09,1.77-.2,3.53-.3,5.18-.17-.35-.32-.68-.41-.91-.05-.14-.1-.29-.16-.46-.23-.68-.55-1.61-1.35-2.98-.95-1.63-1.68-3.05-1.68-3.06-.08-.16-.25-.25-.42-.26.11-1.87.31-4.78.47-4.94Zm-2.16,6.77s1.61-.05,1.61-.28c0-.01,0-.05,0-.08.31.58.77,1.43,1.32,2.36.75,1.28,1.04,2.12,1.27,2.8.06.17.11.33.17.49.28.76,1.19,2.47,1.22,2.54,0,0,0,0,0,0-.06,1.11-.11,2.13-.14,3.03-.37-.47-.87-1.06-1.48-1.68-.43-.43-.79-.87-1.19-1.33-.76-.91-1.55-1.86-2.83-2.74-.08-.05-.17-.07-.26-.08l.29-5.04Zm-15.2,1.55c.6.54,2.07,1.72,3.82,2.24l.22.07q1.51.45,2.63,1.06l1.02.54c1.09.58,1.95.92,2.86,1.28,1.09.43,2.32.93,4.28,1.94.07.04.15.06.23.06.18,0,.36-.1.44-.27.13-.25.03-.55-.21-.67-2-1.04-3.26-1.54-4.37-1.98-.92-.37-1.72-.69-2.77-1.24l-1.01-.54c-1.21-.65-1.23-.66-2.82-1.14l-.22-.07c-1.06-.31-2.01-.92-2.69-1.42,1.31.46,3.27,1.09,4.53,1.26,1.72.23,6.91,2.11,8.47,2.69-.08.21-.02.45.18.58,1.17.81,1.91,1.7,2.63,2.56.39.46.79.94,1.25,1.4,1.23,1.23,2.01,2.42,2.02,2.44.04.06.09.1.14.14v.87c-.09.17-.14.29-.15.31-.07.2,0,.41.15.54v2.57c-3.12-4.03-10.29-7.35-13.81-9.16-3.68-1.89-5.53-4.24-5.53-4.24,0,0,.69,2.06,3.6,4.14,2.74,1.96,10.91,5.02,15.74,10.46h0c0,.48,0,.97,0,1.46-1.44-1.63-2.83-2.49-4.19-3.33-1.11-.68-2.15-1.32-3.19-2.36-2.44-2.44-5.26-3.27-7.32-3.87l-.62-.18c-1.8-.55-2.65-1.96-2.66-1.97-.14-.24-.45-.32-.68-.18-.01,0-.02.02-.03.03-.63-.95-2.09-3.45-1.93-6.01Zm2.35,10.97c-.37-.99-.48-1.89-.47-2.62.42.58,1.21,1.4,2.63,1.98,2.12.87,2.84,1.16,4.92,2.79.22.17.53.13.7-.09s.13-.53-.09-.7c-2.19-1.71-3-2.04-5.15-2.92-1.27-.52-1.93-1.25-2.24-1.7.53.5,1.31,1.06,2.37,1.38l.63.19c1.96.57,4.63,1.35,6.9,3.62,1.12,1.12,2.27,1.83,3.38,2.5,1.52.93,3.09,1.89,4.68,4.01,0,.01.02.01.03.02,0,.45,0,.89,0,1.33l-.89-.89c-.36-.36-.99-1.12-1.5-1.73-.38-.46-.71-.85-.85-.99-.2-.2-.51-.2-.71,0s-.2.51,0,.71c.13.13.43.49.79.92.55.66,1.17,1.4,1.56,1.8l1.02,1.02c-1.87-.62-3.34-1.57-4.97-2.67-.78-.53-1.59-1.07-2.52-1.64-3.28-1.98-6.82-2.9-6.97-2.94-.21-.05-.41.03-.53.2-.67-.5-2.02-1.7-2.73-3.59Zm3.55,6.72c-.17-.7-.28-1.6-.35-2.2.92.64,3.44,2.45,4.74,3.75.2.2.51.2.71,0s.2-.51,0-.71c-.67-.67-1.63-1.46-2.55-2.16,1.11.45,2.38,1.04,3.61,1.77.91.55,1.71,1.09,2.48,1.61,1.94,1.31,3.63,2.45,6.1,3.07,0,.93,0,1.81,0,2.61-.55,0-1.89-.13-3.54-1.01l-.53-.28c-1.95-1.04-2.61-1.39-4.68-1.39-1.83,0-2.58-.75-2.62-.79-.12-.13-.3-.17-.47-.14-.09-.34-.25-.72-.5-.97-.58-.58-2.12-2.03-2.39-3.18Zm-.69,10.59c1.15-.74.92-1.8,1.61-2.49.56-.56,1.61-2.29,1.98-2.91.44.32,1.41.87,3.08.87,1.82,0,2.33.27,4.21,1.27l.53.28c.05.03.1.05.15.07-.99.29-2.32.66-3.19.84-.68.14-1.29.45-1.94.77-.9.45-1.84.92-3.03.92-1.66,0-3.44,1.04-4.35,1.66.24-.54.54-1.04.94-1.3Zm29.8,4.01c-.97,1.7-2.44,1.11-3.5.78-1.06-.32-3.41-.41-5.43-.41s-3.09-.64-4.01-.64-1.84-.24-1.84-.24c-.38.38-1.13.19-1.82.19s-3.65.75-3.65.75v-1.19s-5.22,1.32-6.19,1.32.07-.81-.97-.92c-1.04-.12-3.96-.12-3.96-.12,0,0,.06-.39.19-.92.04.01.09.03.13.03.11,0,.22-.04.31-.11.02-.02,2.37-1.89,4.34-1.89,1.43,0,2.52-.55,3.48-1.03.58-.29,1.14-.57,1.69-.68,1.39-.29,3.82-1.02,4.44-1.21.18.06.35.11.51.16-.48.29-1.06.64-1.65.95-1.43.76-3.48,2.76-3.57,2.85-.17.17-.2.44-.06.64.1.14.25.21.41.21.07,0,.15-.02.22-.05.61-.29,2.4-1.06,3.28-1.06s2.43-.51,3.27-.82c0,.49,0,.78,0,.78,0,.2.16.37.37.37s.37-.17.37-.37h0v-1.1c.16-.14.23-.36.14-.56-.03-.08-.08-.14-.14-.19v-.79c.35.28.82.61,1.47.96.52.29.92.46,1.27.61.71.31,1.14.5,2.07,1.42,1.55,1.55,2.88,1.79,2.94,1.8.03,0,.06,0,.08,0,.24,0,.45-.17.49-.41.05-.27-.13-.53-.4-.58-.01,0-1.1-.22-2.41-1.52-1.06-1.06-1.61-1.3-2.38-1.63-.33-.14-.7-.3-1.19-.57-.75-.41-1.24-.78-1.54-1.05.42-.2.99-.41,1.49-.41.16,0,.3-.01.43-.04.65.14,2.13.55,2.77,1.19,1.05,1.05,4.56,2.76,6.12,3.34.53.2.82.45,1.12.71.41.36.84.73,1.75.89-.15.14-.3.32-.44.56Zm2.07-3.91c.6,1.24,1.45,2.37.97,2.86-.21.21-.62.12-1.1.08,0,0,0,0,0,0,0-.28-.22-.5-.5-.5-1.28,0-1.62-.3-2.09-.72-.34-.3-.72-.64-1.43-.9-1.67-.62-4.91-2.26-5.76-3.11-.52-.52-1.35-.89-2.06-1.13.03,0,.06,0,.09,0,1.97,0,3.12-.04,5.15-.38.56-.09,1.04-.04,1.47,0,.88.09,1.79.16,2.49-1.22.8,1.65,2.34,4.1,2.78,5.01Zm-3.27-6.4c0,.09.03.2.06.33-.13.05-.25.14-.3.28-.44,1.13-.74,1.09-1.65,1-.47-.05-1.05-.11-1.74,0-1.84.31-2.91.36-4.98.36-1.05,0-1.53.17-1.79.68-.03,0-.08,0-.15,0-.69,0-1.39.26-1.89.49v-2.2c.18.01.39.02.68.02.77,0,1.95-.07,3.63-.31,2.06-.3,7-1.15,8.48-2.63,1.07-1.07,4.06-3.34,4.09-3.36.07-.05.11-.12.14-.19.2.13.38.33.38.62,0,.6-4.97,3.87-4.97,4.88Zm-10.99-.03c.38-.12.77-.24,1.07-.31.41-.1.84-.27,1.35-.47.71-.27,1.51-.59,2.51-.82,1.7-.4,3.03-.83,4.78-1.8.86-.48,2.59-1.23,4.03-1.84-.99.78-2.41,1.91-3.11,2.61-.86.86-3.9,1.76-7.92,2.34-1.15.17-2.04.25-2.72.28Zm20.62-16.78c-.55,1.06-.83,2.86-.83,3.78s-.55,2.49-1.47,3.41c-.51.51-1.41,1.63-2.13,2.55-.14-.11-.32-.14-.49-.08-.2.08-4.8,1.92-6.47,2.85-1.66.92-2.87,1.31-4.52,1.7-1.07.25-1.94.59-2.64.86-.46.18-.86.33-1.2.42.04-.04.08-.08.12-.12,1.05-1.05,2.66-2.04,2.67-2.04.24-.14.31-.45.17-.69-.14-.24-.45-.31-.69-.17-.07.04-1.72,1.06-2.86,2.19-.63.63-1.29,1.12-1.72,1.41v-1.81c.15-.17.18-.43.03-.63-.01-.01-.02-.03-.03-.04v-.02c.82-.4,3.15-1.56,4.04-2.45.57-.57,2.49-1.34,4.18-2.01,1.04-.42,2.02-.81,2.74-1.17.62-.31,1.11-.62,1.54-.9.92-.59,1.65-1.06,3.32-1.26.76-.1,1.28-.06,1.63.02-.98.32-2.5.97-3.65,2.12-1.6,1.6-5.05,2.3-5.08,2.3-.27.05-.45.32-.39.59.05.27.32.44.59.39.15-.03,3.79-.76,5.6-2.58,1.6-1.59,4.09-2.11,4.12-2.12.27-.05.44-.31.39-.58-.03-.16-.35-1.51-3.32-1.15-1.89.24-2.74.78-3.73,1.41-.43.27-.87.56-1.45.85-.68.34-1.64.73-2.66,1.13-1.95.78-3.79,1.51-4.51,2.23-.62.62-2.25,1.5-3.33,2.04v-2.1c2.83-2.04,10.01-4.6,15.06-7,5.25-2.49,5.85-4.74,5.85-4.74,0,0-4.79,3.55-9.58,4.97-4.07,1.21-9.72,4.35-11.33,5.26v-1.52s.04-.04.06-.07c.02-.06.62-1.58,3.13-2.32,1.89-.56,2.73-1.03,3.62-1.53.47-.26.96-.54,1.65-.85.47-.21.94-.44,1.42-.66,1.55-.74,3.15-1.5,5.2-2.12,2.12-.65,3.8-1.51,5.43-2.35.51-.26,1.02-.52,1.54-.78.19-.09.29-.3.27-.5.4-.02.71.01.86.16.67.67-.55,2.63-1.11,3.68Z"/>
        <path class="cls-5" d="m187.02,46.91c-76.37,0-138.29,61.91-138.29,138.29s61.91,138.29,138.29,138.29,138.29-61.91,138.29-138.29S263.39,46.91,187.02,46.91Zm0,267.36c-71.28,0-129.07-57.79-129.07-129.07S115.74,56.13,187.02,56.13s129.07,57.79,129.07,129.07-57.79,129.07-129.07,129.07Z"/>
        <path class="cls-5" d="m187.02,5.2C87.61,5.2,7.02,85.79,7.02,185.2s80.59,180,180,180,180-80.59,180-180S286.43,5.2,187.02,5.2Zm0,350.94c-94.41,0-170.94-76.53-170.94-170.94S92.61,14.25,187.02,14.25s170.94,76.53,170.94,170.94-76.53,170.94-170.94,170.94Z"/>
    </g>
    <g id="Pantone_Process_Black_C">
        <path class="cls-8" d="m212.08,70.2c-.11-.22-.22-.44-.32-.64,13.51,4.68,22.35,13.42,23.84,23.72,1.58,10.94-.06,22.6-4.98,35.22,0,0,0,0,0,0-.36-.77-.82-1.48-1.37-2.1-1.57-1.79-3.89-2.82-6.37-2.82-.53,0-1.03,0-1.5,0h-1.17c-3.24-.03-4.97-.14-8.69-2.31-.71-.42-1.5-.94-2.33-1.49,2.29-5.28,4-9.96,4.98-14.01.37-1.53.68-3.06.96-4.62l.03.02.26-1.64c.16-1.02.29-2,.4-2.97.04-.32.06-.62.09-.93.06-.64.12-1.28.17-1.9.02-.35.04-.7.06-1.04.03-.57.06-1.12.07-1.67,0-.34.02-.68.02-1.02,0-.54,0-1.06,0-1.58,0-.31-.01-.63-.02-.93-.02-.55-.05-1.07-.09-1.6-.02-.25-.03-.51-.05-.76-.06-.72-.13-1.42-.22-2.09,0-.04,0-.08-.01-.12-.09-.72-.2-1.41-.32-2.09-.04-.22-.08-.42-.12-.63-.09-.45-.17-.9-.27-1.33-.05-.24-.11-.47-.16-.7-.09-.39-.19-.77-.29-1.14-.06-.23-.12-.45-.19-.67-.1-.36-.21-.71-.32-1.05-.06-.2-.13-.41-.2-.6-.12-.36-.25-.7-.37-1.04-.06-.16-.12-.32-.17-.47-.17-.45-.35-.88-.53-1.29-.01-.03-.03-.07-.04-.1-.2-.45-.39-.87-.59-1.28-.06-.11-.11-.22-.17-.33Zm-41.85,6.18c-.12.39-.24.78-.35,1.18-.06.22-.11.44-.17.66-.09.35-.18.71-.27,1.07-.06.24-.1.49-.16.74-.07.34-.15.69-.21,1.03-.05.26-.09.52-.13.78-.06.34-.11.68-.16,1.03-.04.27-.07.55-.11.82-.04.34-.08.68-.12,1.03-.03.28-.05.57-.08.85-.03.34-.05.69-.08,1.03-.02.29-.03.58-.04.87-.02.35-.03.7-.04,1.05,0,.29-.01.59-.01.89,0,.35,0,.71,0,1.07,0,.3.01.6.02.9.01.36.03.73.05,1.09.02.3.03.6.05.9.03.37.06.74.09,1.12.03.3.05.59.08.89.01.11.03.22.04.33,3.18-1.63,11.58-5.38,21.92-5.38,7.13,0,15.19,1.78,23.09,7.26.03-.25.07-.51.1-.76.05-.44.1-.87.15-1.29.05-.53.1-1.05.14-1.56.03-.41.06-.82.08-1.22.03-.5.05-1,.06-1.49.01-.39.02-.77.03-1.15,0-.48,0-.95,0-1.42,0-.36,0-.72-.02-1.07-.02-.46-.04-.91-.07-1.35-.02-.33-.04-.67-.06-.99-.04-.44-.08-.87-.13-1.29-.03-.3-.06-.61-.1-.91-.06-.43-.12-.84-.19-1.25-.04-.27-.08-.55-.13-.81-.08-.43-.16-.83-.25-1.24-.05-.23-.09-.46-.14-.68-.11-.47-.22-.91-.34-1.35-.04-.14-.07-.3-.11-.44-.16-.57-.32-1.12-.5-1.65-.05-.16-.11-.3-.16-.45-.12-.36-.25-.72-.38-1.06-.08-.2-.16-.39-.24-.59-.11-.27-.21-.54-.32-.8-.09-.2-.18-.39-.26-.58-.1-.23-.21-.46-.31-.67-.09-.19-.19-.37-.28-.55-.1-.19-.2-.39-.3-.57-.09-.18-.19-.34-.28-.51-.1-.17-.19-.34-.29-.5-.09-.16-.18-.3-.27-.45-.06-.1-.12-.19-.18-.28-5.64-1.64-11.46-2.42-16.88-2.27-7.21.2-13.16.86-18.18,2.02-.13.21-.26.43-.39.64-.12.2-.24.4-.36.61-.17.29-.32.59-.48.89-.1.19-.21.38-.3.58-.17.34-.33.69-.49,1.04-.08.16-.16.33-.23.49-.45,1.04-.86,2.12-1.23,3.23-.05.17-.1.34-.15.5Zm-14.12,45.04c.86-.17,1.79-.24,2.92-.24.86,0,1.71.04,2.56.09.87.04,1.66.08,2.53.08,2.15,0,4.51-.23,7.2-1.8.57-.33,1.11-.66,1.65-.99h0c-1.27-3.37-2.34-6.29-3.15-8.63-1.25-3.59-2.16-7.29-2.75-11l-.04.02-.2-1.5c-.09-.7-.17-1.39-.24-2.09-.02-.23-.04-.46-.06-.69-.04-.46-.08-.92-.11-1.38-.02-.27-.03-.54-.04-.81-.02-.41-.04-.83-.05-1.24,0-.28,0-.57-.01-.85,0-.39,0-.78,0-1.17,0-.29,0-.57.02-.86,0-.38.02-.76.04-1.14.01-.28.03-.57.05-.85.02-.38.05-.75.08-1.12.02-.28.05-.55.08-.83.04-.37.08-.75.13-1.12.03-.27.07-.53.1-.8.05-.38.12-.75.18-1.13.04-.25.08-.5.13-.74.07-.4.16-.79.24-1.18.05-.22.09-.44.14-.66.11-.45.22-.9.34-1.35.04-.15.07-.3.11-.44.16-.59.34-1.17.53-1.75.04-.12.09-.24.13-.36.15-.45.31-.89.47-1.33.08-.2.16-.4.24-.6.14-.35.28-.7.43-1.05.1-.22.2-.44.3-.65.14-.31.29-.63.44-.94.11-.23.23-.45.34-.67.1-.18.19-.37.28-.55-13.49,3.9-20.47,12.37-22.51,27.17-1.21,8.79.44,17.9,3.66,27.15,1.07-1.03,2.4-1.75,3.85-2.02Zm10.66,117.21c-3.73-2.17-5.45-2.29-8.69-2.32-.37,0-.76,0-1.17,0-.48,0-.98,0-1.51,0-1.83,0-3.58-.56-5-1.58,0,0,0,0,0,0-9.43,17.06-21.45,28.74-24.8,31.82,3.26,2.69,13.68,12.4,16.96,28.89,16.68-18.94,26.53-40.21,31.22-52.22-1.23-.78-2.4-1.56-3.47-2.29-1.28-.87-2.5-1.69-3.55-2.31Zm59.98-2.96c-1.16,1.47-2.78,2.48-4.57,2.82-.87.16-1.8.24-2.92.24-.86,0-1.72-.04-2.57-.09-.87-.04-1.69-.09-2.52-.09-2.15,0-4.51.23-7.2,1.8-1.32.77-2.55,1.55-3.73,2.3-.09.06-.18.11-.27.16,13.1,29.57,27.14,46.16,31.69,51.09,1.61-14.71,12.55-25.84,15.61-28.7-2.75-2.97-13.12-14.42-23.52-29.53,0,0,0,0,0,0Z"/>
    </g>
</svg>